<svg xmlns="http://www.w3.org/2000/svg" xmlns:xlink="http://www.w3.org/1999/xlink" width="338" height="454.207" viewBox="0 0 338 454.207"><defs><linearGradient id="a" y1="0.524" x2="1" y2="0.522" gradientUnits="objectBoundingBox"><stop offset="0" stop-color="#c3002f"/><stop offset="1" stop-color="#dd0031" stop-opacity="0.447"/></linearGradient><clipPath id="b"><path d="M31.21,15.962l-8.843,8.846,8.843,8.846h-10.1l-3.792-3.792-5.054-5.054,8.846-8.846ZM21.105.8,4.682,17.227l5.054,5.054L31.21.8h-10.1Z" transform="translate(-4.682 -0.804)"/></clipPath><linearGradient id="f" x1="-89.486" y1="-632.995" x2="-87.478" y2="-635.974" gradientUnits="objectBoundingBox"><stop offset="0" stop-color="#1a237e" stop-opacity="0.4"/><stop offset="1" stop-color="#1a237e" stop-opacity="0"/></linearGradient><radialGradient id="h" cx="-719.019" cy="-294.53" r="1.259" gradientTransform="translate(172.47 70.383) scale(1.238 1.238)" gradientUnits="userSpaceOnUse"><stop offset="0" stop-color="#fff" stop-opacity="0.102"/><stop offset="1" stop-color="#fff" stop-opacity="0"/></radialGradient><linearGradient id="i" x1="0.682" y1="0.175" x2="0.278" y2="0.898" gradientUnits="objectBoundingBox"><stop offset="0" stop-color="#41873f"/><stop offset="0.329" stop-color="#418b3d"/><stop offset="0.635" stop-color="#419637"/><stop offset="0.932" stop-color="#3fa92d"/><stop offset="1" stop-color="#3fae2a"/></linearGradient><linearGradient id="j" x1="0.433" y1="0.552" x2="1.592" y2="-0.183" gradientUnits="objectBoundingBox"><stop offset="0.138" stop-color="#41873f"/><stop offset="0.403" stop-color="#54a044"/><stop offset="0.714" stop-color="#66b848"/><stop offset="0.908" stop-color="#6cc04a"/></linearGradient><linearGradient id="k" x1="-44.138" y1="0.134" x2="53.279" y2="0.134" gradientUnits="objectBoundingBox"><stop offset="0.092" stop-color="#6cc04a"/><stop offset="0.286" stop-color="#66b848"/><stop offset="0.597" stop-color="#54a044"/><stop offset="0.862" stop-color="#41873f"/></linearGradient><linearGradient id="l" x1="-0.044" y1="0.5" x2="1.015" y2="0.5" xlink:href="#k"/><linearGradient id="m" x1="-97.138" y1="0.362" x2="0.279" y2="0.362" xlink:href="#k"/><linearGradient id="n" x1="-1.039" y1="0.503" x2="1.008" y2="0.503" xlink:href="#k"/><linearGradient id="o" x1="1.306" y1="-2.111" x2="0.044" y2="2.016" xlink:href="#i"/></defs><g transform="translate(-865 -187.793)"><g transform="translate(-42 55)"><rect width="104" height="104" transform="translate(1024 482)" fill="#de4c36"/><g transform="translate(874 642.077)"><path d="M60.581,29.129,33.622,2.172a3.976,3.976,0,0,0-5.623,0l-5.6,5.6,7.1,7.1a4.722,4.722,0,0,1,5.98,6.02l6.844,6.844A4.726,4.726,0,1,1,39.492,30.4L33.11,24.021v16.8a4.78,4.78,0,0,1,1.251.895,4.727,4.727,0,1,1-5.142-1.032V23.727a4.674,4.674,0,0,1-1.549-1.032,4.73,4.73,0,0,1-1.02-5.173l-7-7L1.165,29a3.977,3.977,0,0,0,0,5.625L28.124,61.587a3.977,3.977,0,0,0,5.624,0L60.581,34.755a3.979,3.979,0,0,0,0-5.626" transform="translate(171 -141.035)" fill="#fff"/></g></g><g transform="translate(865.429 304)"><path d="M0-204.214v51.786H103.571V-256H0Z" transform="translate(0 256)" fill="#007acc"/><path d="M36.464,42.546,36.5,38.3H23.016V0H13.481V38.3H0v4.159a40.756,40.756,0,0,0,.115,4.274c.049.066,8.253.1,18.2.082l18.1-.049Z" transform="translate(59.367 94.676) rotate(180)" fill="#fff"/><path d="M174.815-234.9a12.892,12.892,0,0,1,6.477,3.732,17.055,17.055,0,0,1,2.482,3.321c.033.132-4.472,3.156-7.2,4.85-.1.066-.493-.362-.937-1.019a5.871,5.871,0,0,0-4.866-2.926c-3.14-.214-5.162,1.43-5.146,4.176a3.8,3.8,0,0,0,.444,1.94c.69,1.43,1.973,2.285,6,4.028,7.414,3.189,10.587,5.294,12.56,8.286a15.029,15.029,0,0,1,1.2,12.626c-1.644,4.307-5.721,7.234-11.459,8.2a31.753,31.753,0,0,1-7.891-.082,19.031,19.031,0,0,1-10.538-5.491,18.3,18.3,0,0,1-2.7-3.995,7.736,7.736,0,0,1,.954-.608c.46-.263,2.2-1.266,3.847-2.219l2.976-1.726.625.921a13.9,13.9,0,0,0,3.929,3.765c3.3,1.743,7.842,1.5,10.078-.51A3.813,3.813,0,0,0,177-200.737a3.794,3.794,0,0,0-.773-2.63c-.806-1.151-2.45-2.121-7.118-4.143-5.343-2.3-7.645-3.732-9.749-6a13.658,13.658,0,0,1-2.844-5.179,20.738,20.738,0,0,1-.181-6.609c1.1-5.162,5-8.762,10.62-9.831A26.235,26.235,0,0,1,174.815-234.9Z" transform="translate(-91.243 282.683)" fill="#fff"/></g><g transform="translate(865.793 187.793)"><path d="M0,0H103.207V103.207H0Z" fill="#f7df1e"/><path d="M67.312,156.394l7.9-4.78c1.524,2.7,2.91,4.987,6.235,4.987,3.187,0,5.2-1.247,5.2-6.1V117.529h9.7v33.114c0,10.045-5.888,14.618-14.479,14.618-7.759,0-12.263-4.018-14.549-8.868" transform="translate(-40.175 -70.147)"/><path d="M152.381,154.534l7.9-4.572c2.079,3.4,4.781,5.889,9.561,5.889,4.019,0,6.581-2.009,6.581-4.78,0-3.325-2.632-4.5-7.066-6.442l-2.424-1.04c-7-2.978-11.639-6.719-11.639-14.617,0-7.274,5.542-12.817,14.2-12.817,6.166,0,10.6,2.148,13.786,7.76l-7.551,4.849c-1.663-2.979-3.464-4.156-6.235-4.156-2.84,0-4.642,1.8-4.642,4.156,0,2.91,1.8,4.088,5.958,5.889l2.425,1.039c8.244,3.533,12.886,7.136,12.886,15.241,0,8.73-6.859,13.51-16.072,13.51-9.006,0-14.826-4.3-17.666-9.907" transform="translate(-90.948 -69.326)"/></g><g transform="translate(75 189)"><rect width="104" height="104" transform="translate(907 115)" fill="url(#a)"/><g transform="translate(890.1 96)"><path d="M70.283,30h0L31.9,43.688l5.854,50.751,32.529,18.017h0l32.529-18.017,5.854-50.751Z" fill="#dd0031"/><path d="M125,30V80.875h0v31.58h0l32.529-18.017,5.854-50.751Z" transform="translate(-54.717)" fill="#c3002f"/><path d="M90.795,52.1,66.8,105.9h8.946L80.57,93.864h20.366L105.76,105.9h8.946L90.795,52.1ZM97.8,86.443H83.786l7.009-16.862Z" transform="translate(-20.512 -12.989)" fill="#fff"/></g></g><g transform="translate(-42 73)"><rect width="104" height="104" transform="translate(1024 115)" fill="#53c1de"/><g transform="translate(1034.246 129.216)"><path d="M.754,37.811c0,6.242,6.1,12.07,15.706,15.355-1.919,9.661-.344,17.448,4.917,20.483,5.408,3.119,13.465.96,21.111-5.724,7.454,6.414,14.987,8.939,20.244,5.9,5.4-3.128,7.046-11.443,5.074-21.406,10.01-3.309,15.609-8.279,15.609-14.6,0-6.1-6.107-11.373-15.588-14.637C69.95,12.8,68.151,5.2,62.672,2.041,57.39-1,49.769,1.65,42.206,8.232,34.337,1.246,26.792-.887,21.318,2.282c-5.277,3.055-6.783,10.983-4.858,20.823C7.174,26.343.754,31.737.754,37.811Z" transform="translate(0 0)" fill="#fff"/><path d="M75.6,35.684q-1.142-.393-2.363-.745.2-.818.365-1.612c1.789-8.683.619-15.679-3.375-17.982-3.83-2.208-10.093.094-16.418,5.6q-.912.794-1.828,1.677-.609-.583-1.216-1.123c-6.629-5.886-13.274-8.367-17.264-6.057-3.826,2.215-4.959,8.791-3.349,17.02q.233,1.192.543,2.432c-.94.267-1.848.552-2.717.854C20.207,38.458,15.243,42.7,15.243,47.11c0,4.55,5.328,9.113,13.424,11.88q.958.328,1.985.621-.333,1.339-.577,2.62c-1.535,8.086-.336,14.507,3.479,16.708,3.941,2.273,10.556-.063,17-5.694q.764-.668,1.532-1.412,1,.958,1.985,1.811c6.239,5.369,12.4,7.537,16.213,5.33C74.219,76.694,75.5,69.8,73.837,61.4q-.19-.961-.44-1.962.7-.206,1.365-.427c8.416-2.788,13.891-7.3,13.891-11.906,0-4.421-5.124-8.7-13.052-11.426Z" transform="translate(-9.782 -9.269)" fill="#53c1de"/><path d="M80.292,62.541q-.6.2-1.233.386a73.559,73.559,0,0,0-3.717-9.3,73.541,73.541,0,0,0,3.573-9.164q1.126.326,2.182.688c6.793,2.339,10.937,5.8,10.937,8.46,0,2.838-4.475,6.522-11.742,8.93Zm-3.015,5.974A26.556,26.556,0,0,1,77.63,78.2c-.437,2.357-1.316,3.928-2.4,4.557-2.313,1.339-7.261-.4-12.6-4.993q-.917-.79-1.846-1.683a73.675,73.675,0,0,0,6.153-7.813A73.2,73.2,0,0,0,76.88,66.74q.225.906.4,1.776ZM46.787,82.53c-2.26.8-4.061.821-5.149.194-2.316-1.336-3.278-6.491-1.965-13.407q.226-1.188.536-2.437A73.752,73.752,0,0,0,50.1,68.312,76.345,76.345,0,0,0,56.4,76.1q-.7.678-1.4,1.288a26.56,26.56,0,0,1-8.218,5.144ZM36.2,62.524a26.56,26.56,0,0,1-8.562-4.549c-1.821-1.559-2.74-3.107-2.74-4.363,0-2.673,3.985-6.083,10.632-8.4.806-.281,1.651-.546,2.527-.8a75.171,75.171,0,0,0,3.578,9.272,76.4,76.4,0,0,0-3.623,9.4q-.937-.269-1.812-.567Zm3.55-24.162c-1.38-7.051-.463-12.369,1.842-13.7,2.456-1.422,7.887.605,13.611,5.688q.549.487,1.1,1.017A75.124,75.124,0,0,0,50.048,39.1a76.646,76.646,0,0,0-9.8,1.522q-.287-1.153-.5-2.262Zm31.666,7.819q-1.09-1.882-2.232-3.671c2.342.3,4.586.689,6.694,1.17A66.987,66.987,0,0,1,73.525,50q-1-1.9-2.112-3.82ZM58.5,33.6a67.042,67.042,0,0,1,4.32,5.215q-2.154-.1-4.355-.1-2.178,0-4.321.1c1.426-1.881,2.887-3.628,4.357-5.213Zm-13,12.6Q44.415,48.09,43.431,50c-.913-2.166-1.695-4.3-2.333-6.352,2.094-.469,4.328-.852,6.655-1.142q-1.156,1.8-2.25,3.7Zm2.317,18.74a66.751,66.751,0,0,1-6.766-1.088c.648-2.093,1.447-4.268,2.379-6.481q.986,1.9,2.081,3.8h0q1.115,1.927,2.3,3.77Zm10.765,8.9c-1.486-1.6-2.969-3.378-4.417-5.286q2.108.083,4.3.083,2.244,0,4.431-.1a66.708,66.708,0,0,1-4.31,5.3ZM73.555,57.261a66.53,66.53,0,0,1,2.465,6.458,66.631,66.631,0,0,1-6.848,1.167q1.143-1.811,2.254-3.735,1.122-1.945,2.129-3.89Zm-4.846,2.323c-1.148,1.99-2.326,3.889-3.522,5.682-2.178.156-4.429.236-6.723.236s-4.507-.071-6.646-.21c-1.244-1.816-2.448-3.721-3.588-5.691h0c-1.137-1.964-2.184-3.945-3.132-5.915.948-1.974,1.992-3.957,3.123-5.918h0c1.134-1.966,2.327-3.862,3.56-5.667,2.183-.165,4.422-.251,6.685-.251h0c2.273,0,4.514.087,6.7.253,1.214,1.792,2.4,3.681,3.537,5.648,1.151,1.988,2.208,3.958,3.165,5.89-.953,1.965-2.008,3.955-3.154,5.942Zm6.469-35.02c2.458,1.418,3.414,7.135,1.87,14.632q-.148.718-.33,1.459A75.124,75.124,0,0,0,66.9,39.105,73.668,73.668,0,0,0,60.7,31.36q.846-.814,1.688-1.548C67.8,25.1,72.87,23.233,75.178,24.564Z" transform="translate(-16.298 -15.771)" fill="#fff"/><path d="M114.6,94.665a6.555,6.555,0,1,1-6.555,6.555,6.555,6.555,0,0,1,6.555-6.555" transform="translate(-72.433 -63.38)" fill="#53c1de"/></g></g><g transform="translate(-42 73)"><rect width="104" height="104" transform="translate(1141 115)" fill="#f0d6b7"/><g transform="translate(1168 127.713)"><path d="M50.625,66.96c0,12.973-10.286,23.5-22.981,23.5S4.664,79.933,4.664,66.96s10.286-23.5,22.981-23.5,22.981,10.527,22.981,23.5" transform="translate(-3.959 -35.398)" fill="#d33833"/><path d="M4.479,79.235S2.811,54.734,25.4,54.03L23.827,51.4l-12.25,4.114-3.5,4.022L5.017,65.391l-1.742,6.82.519,4.559" transform="translate(-2.83 -41.854)" fill="#ef3d3a"/><path d="M8.844,48.186A23.047,23.047,0,0,0,2.32,64.309h0A23.047,23.047,0,0,0,8.844,80.433h0A21.894,21.894,0,0,0,24.578,87.1h0a21.894,21.894,0,0,0,15.734-6.672h0a23.047,23.047,0,0,0,6.524-16.124h0a23.047,23.047,0,0,0-6.524-16.124h0a21.968,21.968,0,0,0-15.734-6.672h0A21.926,21.926,0,0,0,8.844,48.186ZM7.824,81.415A24.4,24.4,0,0,1,.893,64.309h0A24.48,24.48,0,0,1,7.824,47.185h0a23.4,23.4,0,0,1,16.754-7.1h0a23.4,23.4,0,0,1,16.754,7.1h0a24.413,24.413,0,0,1,6.931,17.124h0a24.4,24.4,0,0,1-6.931,17.106h0a23.32,23.32,0,0,1-16.754,7.1h0a23.32,23.32,0,0,1-16.754-7.1Z" transform="translate(-0.893 -32.655)" fill="#231f20"/><path d="M72.016,35.943l-3.5.519L63.787,37l-3.058.074-2.984-.093-2.28-.7-2.02-2.187-1.575-4.466-.352-.964-2.094-.7L48.2,25.935l-.871-2.891.964-2.539,2.28-.8,1.835.871.871,1.927,1.056-.167.352-.445-.352-2.02-.093-2.539.519-3.5-.019-2,1.594-2.558,2.8-2.02L64.028,5.16l5.43.8,4.726,3.41,2.187,3.5,1.408,2.539.352,6.3-1.056,5.43-1.927,4.819-1.816,2.576" transform="translate(-38.657 -4.251)" fill="#f0d6b7"/><path d="M56.059,179.707l-12.51.519v2.094l1.056,7.357-.519.612-8.747-2.984-.612-1.056-.871-9.9L31.8,170.422l-.445-1.408L38.36,164.2l2.187-.871,1.927,2.372,1.668,1.483,1.927.612.871.259L48,172.609l.8.964,2.02-.7-1.408,2.724,7.6,3.6-.945.519" transform="translate(-25.665 -132.874)" fill="#335061"/><path d="M50.957,24.173l2.28-.8,1.835.871.871,1.927L57,26.008l.259-1.056-.519-2.02.519-4.819-.445-2.632,1.575-1.835,3.41-2.706-.964-1.316L56.016,12,54,13.572l-1.131,2.446-1.742,2.372-.519,2.8.352,2.984" transform="translate(-41.32 -7.882)" fill="#6d6b6d"/><path d="M62.944,17.306s1.316-3.243,6.561-4.819.259-1.131.259-1.131l-5.69,2.187-2.187,2.187-.964,1.742,2.02-.167" transform="translate(-49.712 -9.244)" fill="#dcd9d8"/><path d="M51.92,49.141s-1.835-6.134,5.171-7.005l-.259-1.056L52.013,42.21,50.6,46.769l.352,2.984.964-.612" transform="translate(-41.32 -33.462)" fill="#dcd9d8"/><path d="M72.633,122.96l1.149-1.112a.738.738,0,0,1,.612.667c.093.612.352,6.134,4.114,9.1.352.278-2.8-.445-2.8-.445l-2.8-4.374" transform="translate(-59.233 -99.145)" fill="#f7e4cd"/><path d="M158.843,108.171s.2-2.65.927-2.446a.991.991,0,0,1,.723.927s-1.742,1.112-1.649,1.52" transform="translate(-129.339 -86.024)" fill="#f7e4cd"/><path d="M190.866,66.878s-1.446.3-1.575,1.575,1.575.259,1.835.167" transform="translate(-154.097 -54.442)" fill="#f7e4cd"/><path d="M132.706,67.374s-1.927.259-1.927,1.483,2.187,1.131,2.8.612" transform="translate(-106.519 -54.845)" fill="#f7e4cd"/><path d="M52.623,86.781s-3.317-2.02-3.669-.093-1.131,3.317.519,5.337l-1.131-.352-1.056-2.706-.352-2.632,2.02-2.094,2.28.167,1.316,1.056.074,1.316" transform="translate(-38.334 -68.563)" fill="#f7e4cd"/><path d="M85.419,14s1.483-7.71,9.007-9.192c6.19-1.223,9.452.259,10.675,1.668,0,0-5.523-6.561-10.768-4.559-5.245,2.02-9.1,5.69-9.007,8.043.148,4.04.093,4.04.093,4.04" transform="translate(-69.555 -1.306)" fill="#f7e4cd"/><path d="M183.022,32.643s-2.539-.093-2.632,2.187a1.837,1.837,0,0,0,.167.7s2.02-2.28,3.243-1.056" transform="translate(-146.865 -26.601)" fill="#f7e4cd"/><path d="M113.143,40.3s-.445-3.484-3.41-1.464c-1.927,1.316-1.742,3.151-1.408,3.5.352.352.259,1.056.519.575s.185-2.057,1.149-2.5c.945-.445,2.539-.927,3.151-.111" transform="translate(-88.087 -31.122)" fill="#f7e4cd"/><path d="M42.574,165.373l-8.229,3.669s3.41,13.566,1.668,17.773l-1.223-.445L34.7,181.2l-2.28-9.785-.964-2.706,8.581-5.782,2.539,2.446" transform="translate(-25.746 -132.552)" fill="#49728b"/><path d="M93.76,216.211l1.168,1.427v5.245h-1.39s-.167-3.669-.167-4.114.167-2.02.167-2.02" transform="translate(-76.098 -175.883)" fill="#49728b"/><path d="M78.465,256.2l-3.947.167,1.131.8,2.8.445" transform="translate(-60.766 -208.402)" fill="#49728b"/><path d="M167.789,251.131l3.243-.093.8,8.043-3.317.445-.723-8.4" transform="translate(-136.617 -204.206)" fill="#335061"/><path d="M172.453,174.151l4.893-.259s2.02-5.078,2.02-5.337,1.742-7.358,1.742-7.358l-3.948-4.114-.8-.7-2.094,2.094v8.136l-1.816,7.543" transform="translate(-140.41 -127.226)" fill="#335061"/><path d="M170.847,248.26l-3.058.612.445,2.446c1.131.519,3.058-.871,3.058-.871" transform="translate(-136.617 -201.947)" fill="#49728b"/><path d="M184.657,158.294l6.134,4.559.167-2.094-4.633-4.281-1.668,1.816" transform="translate(-150.335 -127.307)" fill="#49728b"/><path d="M99.418,268.69,97.6,261.332l-.908-5.43-.148-4.022,8.21-.445h5.1l-.463,9.192.8,7.1-.093,1.316-6.653.519-4.022-.871" transform="translate(-78.68 -204.529)" fill="#fff"/><path d="M137.367,248.779s-.445,9.1.871,15.586a16.6,16.6,0,0,1-6.468,2.094l7.358-.259.871-.519-1.056-14.344-.278-3.076" transform="translate(-107.326 -201.947)" fill="#dcd9d8"/><path d="M186.08,248.068l3.41-.964,6.468-.352.964-2.984L195.18,238.6l-2.02-.259-2.8.871-2.669,1.316-1.427-.259-1.112.445" transform="translate(-150.738 -193.877)" fill="#fff"/><path d="M189.817,253.892a12.54,12.54,0,0,1,2.632-.964l-.964-4.819,1.131-.445s.8,4.559.8,5.078c0,0,4.893.259,5.337.259a7.968,7.968,0,0,0,.8-4.114l.964,2.8.093,1.575-1.408,2.094-1.575.352-2.632-.093-.871-1.131-3.058.445-.964.352" transform="translate(-154.531 -201.463)" fill="#dcd9d8"/><path d="M154.174,208.548l-1.927-4.893-2.02-2.891s.445-1.223,1.056-1.223h2.02l1.927.7-.167,3.243-.89,5.059" transform="translate(-122.335 -162.327)" fill="#fff"/><path d="M154,205.992s-2.446-4.726-2.446-5.43c0,0,.445-1.056,1.056-.8s1.927.964,1.927.964v-1.668l-2.984-.612-2.02.259,3.41,8.08.7.093" transform="translate(-121.77 -161.439)" fill="#dcd9d8"/><path d="M95.6,172.821l-2.428-.259-2.28-.7v.8L92,173.877l3.5,1.575" transform="translate(-74.081 -139.814)" fill="#fff"/><path d="M94.108,178.406s2.706,1.13,3.6.871l.093,1.056-2.446-.519-1.483-1.056.241-.352" transform="translate(-76.501 -145.14)" fill="#dcd9d8"/><path d="M171.152,180.009a16.176,16.176,0,0,1-4-.556,9.159,9.159,0,0,1,.056-1.3,3.06,3.06,0,0,1,1.371-.3,2.37,2.37,0,0,0-1.52-.167,2.519,2.519,0,0,0-.259-.8c.834-.3,2.8-2.242,3.91-1.612.537.315.76,2.057.8,2.928a3.065,3.065,0,0,1-.352,1.8" transform="translate(-135.81 -142.498)" fill="#d33833"/><path d="M171.152,180.009a16.176,16.176,0,0,1-4-.556,9.159,9.159,0,0,1,.056-1.3,3.06,3.06,0,0,1,1.371-.3,2.37,2.37,0,0,0-1.52-.167,2.519,2.519,0,0,0-.259-.8c.834-.3,2.8-2.242,3.91-1.612.537.315.76,2.057.8,2.928a3.065,3.065,0,0,1-.352,1.8Z" transform="translate(-135.81 -142.498)" stroke="#d33833" stroke-width="2"/><path d="M123.809,179.153a2.015,2.015,0,0,1-.019.334c-.463.3-1.2.3-1.724.556a4.86,4.86,0,0,1,1.853.463c-.019.278-.019.575-.037.853-.853.575-1.631,1.446-2.632,2a6.736,6.736,0,0,1-2.632.8c-.278-.074-.315-.426-.426-.76a11,11,0,0,1-.853-2.928c-.056-1.353-.2-3.632,1.26-3.354a12.776,12.776,0,0,1,3.466,1.26,3.519,3.519,0,0,0,1.742.778" transform="translate(-95.565 -144.07)" fill="#d33833"/><path d="M123.809,179.153a2.015,2.015,0,0,1-.019.334c-.463.3-1.2.3-1.724.556a4.86,4.86,0,0,1,1.853.463c-.019.278-.019.575-.037.853-.853.575-1.631,1.446-2.632,2a6.736,6.736,0,0,1-2.632.8c-.278-.074-.315-.426-.426-.76a11,11,0,0,1-.853-2.928c-.056-1.353-.2-3.632,1.26-3.354a12.776,12.776,0,0,1,3.466,1.26,3.519,3.519,0,0,0,1.742.778Z" transform="translate(-95.565 -144.07)" stroke="#d33833" stroke-width="2"/><path d="M155.556,188.546a5.073,5.073,0,0,1-.222-1.594c1.983-1.316,2.335,2.261.222,1.594" transform="translate(-126.478 -151.851)" fill="#d33833"/><path d="M155.556,188.546a5.073,5.073,0,0,1-.222-1.594c1.983-1.316,2.335,2.261.222,1.594Z" transform="translate(-126.478 -151.851)" stroke="#d33833" stroke-width="2"/><path d="M166.612,177.021s-.612-.871-.167-1.13.871,0,1.13-.445,0-.7.093-1.223.519-.612.964-.7,1.668-.259,1.835.167l-.519-1.575-1.056-.352-3.317,1.927-.167.964v1.927" transform="translate(-134.68 -139.733)" fill="#ef3d3a"/><path d="M115.535,182.259c-.111-1.371-.222-2.724-.334-4.1-.185-2.039.482-1.687,2.261-1.687a4.565,4.565,0,0,1,1.761.519c.482.982-.8.76.556,1.5,1.131.612,3.151-.371,2.687-1.761-.259-.315-1.334-.093-1.724-.3l-2.057-1.056c-.871-.445-2.873-1.112-3.8-.482-2.354,1.594.148,5.6.982,7.265" transform="translate(-92.795 -142.08)" fill="#ef3d3a"/><path d="M114.508,43.27c-2.391-.556-3.577,1-4.3,2.613-.649-.148-.389-1.038-.222-1.483.426-1.168,2.15-2.743,3.558-2.52.593.074,1.408.63.964,1.39" transform="translate(-89.452 -34.096)" fill="#231f20"/><path d="M190.237,63.9h.111a25.084,25.084,0,0,0,1.686,3.3c-.463,1.075-3.447,2-3.41.111.649-.278,1.761-.056,2.335-.426a6.5,6.5,0,0,1-.723-2.984" transform="translate(-153.561 -52.021)" fill="#231f20"/><path d="M133.048,64.1a10.168,10.168,0,0,0,1.408,2.632c.334.315.964.7.649,1.594a2.04,2.04,0,0,1-.927.76c-1.131.334-3.781.074-2.891-1.353.945.037,2.205.612,2.91-.074-.537-.853-1.5-2.558-1.149-3.558" transform="translate(-106.787 -52.182)" fill="#231f20"/><path d="M164.438,77.669c-1.705,1.093-3.614,2.3-6.431,2.02a1.9,1.9,0,0,1-.241-2.446c.3.519.111,1.483.964,1.631,1.594.278,3.447-.982,4.6-1.409.7-1.2-.056-1.631-.7-2.409-1.316-1.575-3.058-3.54-3-5.893.537-.389.575.593.649.76a22.241,22.241,0,0,0,3.651,5.022c.315.334.815.667.871.89.167.63-.426,1.408-.352,1.835" transform="translate(-128.188 -56.226)" fill="#231f20"/><path d="M59.516,95.731c-.537-.315-.667-1.649-1.3-1.686-.908-.056-.741,1.742-.741,2.8a3.35,3.35,0,0,1-.278-3.188c-.519-.259-.741.278-1.038.463.389-2.687,3.947-1.242,3.354,1.612" transform="translate(-45.838 -75.437)" fill="#231f20"/><path d="M181.927,121.153c-.8,1.52-1.927,3.188-4.263,3.243a5.3,5.3,0,0,1,0-1.538c1.8-.185,2.91-1.093,4.263-1.705" transform="translate(-144.602 -98.58)" fill="#231f20"/><path d="M140.8,126.412c1.483.778,4.225.871,6.264.815a6.754,6.754,0,0,1,.111,1.538c-2.613.111-5.69-.537-6.375-2.354" transform="translate(-114.669 -102.857)" fill="#231f20"/><path d="M136.556,134.152c1.038,2.595,4.578,2.3,7.561,2.224a1.5,1.5,0,0,1-.778.871c-.964.389-3.6.686-4.93-.019a6.883,6.883,0,0,1-1.853-2.057c-.2-.278-1.316-1,0-1.019" transform="translate(-110.703 -109.151)" fill="#231f20"/><path d="M177.74,205.514a51.825,51.825,0,0,1-3.8,6.023,29.478,29.478,0,0,0,.945-6.987,2.2,2.2,0,0,1,2.854.964" transform="translate(-141.62 -166.224)" fill="#81b0c4"/><path d="M213.294,250.543c-1.353.278-2.3,1.594-3.632,1.5a4.335,4.335,0,0,1,3.632-1.5" transform="translate(-170.669 -203.803)" fill="#231f20"/><path d="M216.954,260.449a20.417,20.417,0,0,1-3.521.2c.537-.815,2.576-.519,3.521-.2" transform="translate(-173.735 -211.596)" fill="#231f20"/><path d="M217.1,269.521c-1.242.018-2.78,0-3.966-.093.7-.76,3.169-.278,3.966.093" transform="translate(-173.493 -218.833)" fill="#231f20"/><path d="M175.283,298.373c.185,1.557.8,3.132.723,4.837a5.24,5.24,0,0,1-2,.426c-.056-1.446-.259-3.669-.2-5.059.445.037,1.112-.315,1.483-.2" transform="translate(-141.498 -242.682)" fill="#dcd9d8"/><path d="M150.245,175.429c-.63.408-1.149.908-1.761,1.353a3.8,3.8,0,0,1-3.021-.853c.019-.056.111-.037.111-.111,1.427.63,3.243-.259,4.67-.389" transform="translate(-118.461 -142.719)" fill="#f0d6b7"/><path d="M131.175,212.073c.389-1.686,1.927-2.576,3.317-3.5a28.175,28.175,0,0,1,3.262,6.412,32.844,32.844,0,0,1-6.579-2.91" transform="translate(-106.842 -169.67)" fill="#81b0c4"/><path d="M54.632,56.21c-.056,1.39.13,3.6.2,5.059a5.24,5.24,0,0,0,2-.426c.074-1.705-.537-3.28-.723-4.837-.371-.13-1.038.222-1.483.2ZM40.324,48.352a72.644,72.644,0,0,0,3.095,15.2,20.044,20.044,0,0,0,11.046.2c-.575-2.78-.334-6.171-.667-9.155-.259-2.242-.13-4.485-.482-6.764-3.836-.8-9.248-.185-12.991.519Zm13.9-.482c-.037,2.391.111,4.763.3,7.154a22.868,22.868,0,0,0,2.391-.426c-.278-2.3-.241-4.911-.815-6.95a5.888,5.888,0,0,0-1.872.222Zm4.652-.389a6.6,6.6,0,0,0-1.353,0c.2,1.946.667,4.1.834,6.153.649.019,1-.3,1.538-.389.037-1.8-.148-4.281-1.019-5.764Zm7.061,6.449a3.018,3.018,0,0,0,1.835-3.725,17.393,17.393,0,0,0-1.2-4.077c-.352-.537-1.334-1.26-2.131-.76-1.279.815-3.521,1.056-4.448,2.039a32.46,32.46,0,0,1,.8,5.634c1.594.093,3.54-.445,4.874.13a17.128,17.128,0,0,0-2.91.741,6.14,6.14,0,0,0,3.188.019ZM53.223,45.609A28.174,28.174,0,0,0,49.961,39.2c-1.39.927-2.91,1.816-3.317,3.5a33.805,33.805,0,0,0,6.579,2.91ZM55.6,38.622a29.479,29.479,0,0,1-.945,6.987,53.442,53.442,0,0,0,3.8-6.023,2.2,2.2,0,0,0-2.854-.964Zm-2.687-.945c-.537-.056-1,.63-1.705.334-.167.185-.315.371-.482.556,1.557,1.89,2.28,4.559,3.484,6.764a29.916,29.916,0,0,0,.723-6.764c-.89.037-1.39-.834-2.02-.89ZM51.185,35.4a5.073,5.073,0,0,0,.222,1.594c2.113.667,1.761-2.91-.222-1.594Zm-2.354-.778a12.776,12.776,0,0,0-3.466-1.26c-1.464-.278-1.316,2-1.26,3.354a11.215,11.215,0,0,0,.853,2.928c.111.334.148.686.426.76a6.961,6.961,0,0,0,2.632-.8,27.209,27.209,0,0,0,2.632-2c.019-.278.019-.575.037-.853a4.466,4.466,0,0,0-1.853-.463c.5-.259,1.26-.259,1.724-.556a2.014,2.014,0,0,1,.019-.334,3.879,3.879,0,0,1-1.742-.778Zm-8.71-1.575c-.76.778,2.131,1.816,3.039,1.872,0-.482.278-.945.222-1.3-1.093-.185-2.52-.056-3.262-.575Zm9.341.352c0,.074-.093.056-.111.111a3.842,3.842,0,0,0,3.021.853c.593-.426,1.131-.945,1.761-1.353-1.446.13-3.262,1.019-4.67.389Zm8.562,2.595c-.037-.853-.259-2.613-.8-2.928-1.112-.649-3.076,1.316-3.91,1.612a2.519,2.519,0,0,1,.259.8,2.357,2.357,0,0,1,1.52.167,3.06,3.06,0,0,0-1.371.3c-.111.352.037.815-.056,1.3a17.1,17.1,0,0,0,4,.556,3,3,0,0,0,.352-1.8ZM38.842,33.785c-.241-.167-1.853-2.261-2.076-2.168A34.184,34.184,0,0,0,28.7,36.639c2.317,4.985,3.262,11.083,3.429,16.958,2.65,1.242,4.985,3.039,8.6,3.225-.426-2.947-.8-5.6-1.038-8.377-.908-.389-2.205.019-3.058-.111,0-1.019,1.3-.445,1.408-1.131.074-.519-.723-.556-.463-1.371.667.241,1.019.778,1.724.982.649-1.408,0-3.91.093-5.1.019-.222.111-1.223.612-1.056.445.148-.019,2.687.019,3.8.037,1.038-.13,2.02.3,2.669a99.54,99.54,0,0,1,10.8-.89,24.122,24.122,0,0,1-2.891-1.3c-.593-.334-2.428-1.019-2.595-1.575-.278-.89.7-1.353.871-2.113-1.761.964-2.094-.927-2.52-2.242a18.5,18.5,0,0,1-.686-2.8,35.145,35.145,0,0,1-4.466-2.428Zm17.643-1.927c2.428-1.168,2.873,4.392,1.909,6.19.148.537.649.741.853,1.223C57.893,41.7,56.392,43.96,55,46.35c1.019-.649,2.5-.111,3.707-.593.445-.167.76-1.186,1.093-2A42.715,42.715,0,0,0,62.119,36.6a8.422,8.422,0,0,0,.3-1.964c-.111-.778-1.149-1.353-1.686-1.816-.982-.89-1.594-1.649-2.632-2.483-.389.612-1.279,1.019-1.612,1.52ZM33.3,10.341c-1.149,1.279-.908,3.651-.778,5.356,2.094-1.316,4.856.111,4.837,2.335,1-.019.371-1.242.185-2.039-.593-2.576,1-5.356.074-7.71A6.3,6.3,0,0,0,33.3,10.341Zm8.266-7.395c-2.613.741-5.968,2.65-7.042,5,.834-.13,1.408-.537,2.224-.593a5.128,5.128,0,0,0,1.075.037c.7-.185,1.316-1.779,1.853-2.372.519-.575,1.149-.834,1.575-1.353.278-.13.686-.13.7-.537a.4.4,0,0,0-.389-.185Zm13.622.7C52.463,2.113,47.867.963,44.976,2.409,42.641,3.577,39.49,5.5,38.415,7.932c1,2.354-.3,4.5-.389,6.894-.037,1.279.593,2.372.649,3.762-.352.575-1.39.63-2.113.593-.241-1.223-.667-2.595-1.927-2.743a2.917,2.917,0,0,0-3.169,2.817c-.093,1.816,1.39,4.819,3.5,4.615.815-.074,1.019-.89,1.909-.89.482.964-.741,1.26-.871,1.946a4.657,4.657,0,0,0,.185,1.2,16.738,16.738,0,0,0,2.076,4.837c1.075,1.538,3.169,1.761,5.43,1.909.408-.871,1.89-.8,2.854-.575a9.538,9.538,0,0,1-3.132-2.558c-1.019-1.131-2.057-2.335-2.113-3.818,1.946,2.687,3.54,5.041,7.061,6.227,2.669.89,5.782-.408,7.839-1.853a9.25,9.25,0,0,0,1.964-2.409,20.569,20.569,0,0,0,3.095-12.4c-.093-1.853-.093-3.707-.723-4.948-.649-1.3-2.854-2.483-4.151-1.3-.241-1.279,1.075-2.057,2.613-1.594-1.093-1.427-2.242-3.114-3.818-4Zm5.078,41.9c2.131-1.056,6.1-2.836,7.413,0a22.064,22.064,0,0,1,1.316,3.91c.352,1.52-.389,4.744-1.964,5.245a9.411,9.411,0,0,1-4.67.093,2.706,2.706,0,0,1-.575-.741,6.392,6.392,0,0,0-3.243.556c.093.89-.5,1.019-1.075,1.2-.408,1.649.834,3.8.537,5.282-.2,1.075-1.52,1.242-2.483,1.427a7.26,7.26,0,0,0,.111,1.594,2.4,2.4,0,0,1-2.15,1.39c-3.095.371-7.784.537-10.749-.537-.834-2.039-1.483-4.5-2.168-6.82-2.891.315-5.245-1.242-7.45-2.28-.76-.352-1.816-.556-2.113-1.168a10.571,10.571,0,0,1-.241-2.78,42.716,42.716,0,0,0-1.038-8.136c-.315-1.26-.89-2.354-1.279-3.558a24.817,24.817,0,0,1-1.168-3.614c-.241-1.649,1.316-1.742,2.3-2.465,1.538-1.112,2.743-1.724,4.411-2.724a9.581,9.581,0,0,0,2.15-1.39c.334-.686-.575-1.649-.815-2.187a6.593,6.593,0,0,1-.649-2.409,4.667,4.667,0,0,1-3.095-1.983,7.589,7.589,0,0,1-.871-6.6c.074-.167.426-.519.482-.778a8.481,8.481,0,0,0-.222-1.761c-.093-2.836.482-5.282,2.391-6.134.778-3.095,3.558-4.114,6.171-5.653A19.405,19.405,0,0,1,42.7,1.186C46.681-.278,52.815,0,56.133,2.5a17.674,17.674,0,0,1,4.448,4.93c2.131,4.281,1.964,11.453.482,16.68a17.129,17.129,0,0,1-.89,2.576c-.278.593-1.149,1.761-1.056,2.28.111.537,2,1.964,2.409,2.354.723.7,2.113,1.631,2.224,2.52a8.6,8.6,0,0,1-.686,3.151c-.89,3.039-1.779,5.838-2.8,8.562Z" transform="translate(-22.329 -0.296)" fill="#231f20"/><path d="M127.836,129c.111-.148.741-.389,1.631.037,0,0-1.056.167-.964,1.927l-.445-.093c.019.019-.445-1.575-.222-1.872" transform="translate(-104.077 -104.796)" fill="#f7e4cd"/><path d="M164.982,208.358a.482.482,0,1,1-.482-.482.478.478,0,0,1,.482.482" transform="translate(-133.551 -169.105)" fill="#1d1919"/><path d="M167.562,220.364a.482.482,0,1,1-.482-.482.467.467,0,0,1,.482.482" transform="translate(-135.649 -178.869)" fill="#1d1919"/><g transform="translate(0.019 68.627)"><path d="M6.653,5.127q-.222.028-.389.056c-.111.019-.222.037-.371.074a.356.356,0,0,0-.3.222,1.1,1.1,0,0,0-.074.371v4.522a2.676,2.676,0,0,1-.259,1.149,2.432,2.432,0,0,1-.686.871,3.213,3.213,0,0,1-1,.519,4.05,4.05,0,0,1-1.168.185,2.709,2.709,0,0,1-1.742-.519A1.708,1.708,0,0,1,0,11.15a1.324,1.324,0,0,1,.3-.89,1.028,1.028,0,0,1,.834-.352,1.062,1.062,0,0,1,.8.3.979.979,0,0,1,.3.723,1.091,1.091,0,0,1-.259.686,3.491,3.491,0,0,1-.593.575v.074a.483.483,0,0,0,.222.2.8.8,0,0,0,.352.074,1.314,1.314,0,0,0,1.093-.5,2.421,2.421,0,0,0,.389-1.5V5.905a1,1,0,0,0-.056-.352c-.037-.093-.148-.167-.315-.241a1.945,1.945,0,0,0-.426-.13c-.167-.037-.3-.056-.408-.074V4.664H6.6v.463Z" transform="translate(0 -3.904)"/><path d="M45.626,21.669a3.794,3.794,0,0,1-.482.63,2.883,2.883,0,0,1-.649.5,3.519,3.519,0,0,1-.778.334,3.384,3.384,0,0,1-.908.111A4.013,4.013,0,0,1,41.326,23a2.834,2.834,0,0,1-1.019-.649,2.758,2.758,0,0,1-.612-.964,3.651,3.651,0,0,1-.2-1.2,2.928,2.928,0,0,1,.222-1.131,3.275,3.275,0,0,1,.612-.964,2.788,2.788,0,0,1,1-.667,3.494,3.494,0,0,1,1.334-.259,3.885,3.885,0,0,1,1.334.2,2.317,2.317,0,0,1,.853.537,2.116,2.116,0,0,1,.482.778,3.153,3.153,0,0,1,.148.945V20h-3.91a2.892,2.892,0,0,0,.463,1.8,1.689,1.689,0,0,0,1.446.612,1.661,1.661,0,0,0,.982-.3,2.636,2.636,0,0,0,.741-.76l.426.315ZM43.42,19.464c0-.222-.019-.463-.037-.7a1.656,1.656,0,0,0-.13-.593.842.842,0,0,0-.278-.408.65.65,0,0,0-.426-.13.782.782,0,0,0-.7.445,2.983,2.983,0,0,0-.3,1.427l1.872-.037Z" transform="translate(-32.115 -14.071)"/><path d="M82.444,22.879H78.96v-.426a1.454,1.454,0,0,0,.259-.037,1.588,1.588,0,0,0,.241-.056.406.406,0,0,0,.167-.185.871.871,0,0,0,.056-.352V19.117a1.5,1.5,0,0,0-.222-.89.731.731,0,0,0-.649-.3,1.087,1.087,0,0,0-.426.074,1.313,1.313,0,0,0-.389.2,1.185,1.185,0,0,0-.278.241.871.871,0,0,0-.167.222v3.095a.9.9,0,0,0,.056.334.4.4,0,0,0,.185.2.618.618,0,0,0,.222.093l.278.056v.426H74.772v-.426a1.848,1.848,0,0,0,.3-.037c.093-.019.185-.037.259-.056a.421.421,0,0,0,.259-.2.9.9,0,0,0,.074-.352V18.432a.831.831,0,0,0-.093-.352.873.873,0,0,0-.241-.278.841.841,0,0,0-.259-.111,1.079,1.079,0,0,0-.352-.056v-.426l2.761-.148.093.093v.834h.019c.111-.093.241-.2.389-.352.148-.13.3-.241.426-.334a2.626,2.626,0,0,1,.556-.241,2.393,2.393,0,0,1,.741-.093,1.788,1.788,0,0,1,1.408.537,2.068,2.068,0,0,1,.463,1.427v2.836a.774.774,0,0,0,.056.334.448.448,0,0,0,.241.2,1.546,1.546,0,0,0,.222.074c.093.019.185.037.315.056v.445Z" transform="translate(-60.761 -13.91)"/><path d="M125.111,9.565h-2.724c-.334-.593-.649-1.093-.927-1.5s-.537-.8-.778-1.131l-.334.3V8.49a.833.833,0,0,0,.056.334.389.389,0,0,0,.241.2.918.918,0,0,0,.241.074,1.43,1.43,0,0,0,.278.037v.426h-3.6V9.139a1.848,1.848,0,0,0,.3-.037c.093-.019.185-.037.259-.056a.421.421,0,0,0,.259-.2.9.9,0,0,0,.074-.352V2.041a1,1,0,0,0-.093-.389.687.687,0,0,0-.241-.315.994.994,0,0,0-.334-.111,1.653,1.653,0,0,0-.408-.056V.744L120.256.6l.093.093V6.656c.278-.259.612-.556.964-.89s.649-.612.853-.834c.13-.13.2-.222.2-.3a.489.489,0,0,0,.019-.13c0-.074-.056-.13-.185-.167a3.59,3.59,0,0,0-.556-.13V3.8h2.928v.408a7,7,0,0,0-.89.3,6.329,6.329,0,0,0-.667.371c-.167.111-.315.222-.463.334s-.315.259-.519.426c.371.556.723,1.056,1.038,1.52s.649.964,1,1.483a.866.866,0,0,0,.445.371,2.772,2.772,0,0,0,.537.111v.445Z" transform="translate(-95.459 -0.595)"/><path d="M162.063,9.646h-3.651V9.22a1.622,1.622,0,0,0,.3-.037,2.419,2.419,0,0,0,.241-.056.421.421,0,0,0,.259-.2.663.663,0,0,0,.074-.352V5.2a.71.71,0,0,0-.093-.352.563.563,0,0,0-.222-.241,1.345,1.345,0,0,0-.315-.13,1.769,1.769,0,0,0-.389-.074V3.975l2.836-.148.093.093v4.6a.767.767,0,0,0,.093.352.513.513,0,0,0,.241.2,1.072,1.072,0,0,0,.259.093c.093.019.185.037.3.056v.426Zm-.834-7.876a.96.96,0,0,1-.334.741,1.169,1.169,0,0,1-.8.315,1.215,1.215,0,0,1-.815-.315.988.988,0,0,1-.334-.741,1.027,1.027,0,0,1,.334-.76A1.181,1.181,0,0,1,160.1.695a1.136,1.136,0,0,1,.8.315,1,1,0,0,1,.334.76Z" transform="translate(-128.704 -0.676)"/><path d="M188.714,22.879H185.23v-.426a1.454,1.454,0,0,0,.259-.037,1.589,1.589,0,0,0,.241-.056.406.406,0,0,0,.167-.185.871.871,0,0,0,.056-.352V19.117a1.5,1.5,0,0,0-.222-.89.731.731,0,0,0-.649-.3,1.087,1.087,0,0,0-.426.074,1.964,1.964,0,0,0-.389.2,1.184,1.184,0,0,0-.278.241.871.871,0,0,0-.167.222v3.095a.9.9,0,0,0,.056.334.4.4,0,0,0,.185.2.618.618,0,0,0,.222.093l.278.056v.426h-3.521v-.426a1.848,1.848,0,0,0,.3-.037c.093-.019.185-.037.259-.056a.421.421,0,0,0,.259-.2.9.9,0,0,0,.074-.352V18.432a.831.831,0,0,0-.093-.352.872.872,0,0,0-.241-.278.841.841,0,0,0-.259-.111,1.079,1.079,0,0,0-.352-.056v-.426l2.761-.148.093.093v.834h.019c.111-.093.241-.2.389-.352.148-.13.3-.241.426-.334a2.627,2.627,0,0,1,.556-.241,2.393,2.393,0,0,1,.741-.093,1.788,1.788,0,0,1,1.408.537,2.068,2.068,0,0,1,.463,1.427v2.836a.775.775,0,0,0,.056.334.448.448,0,0,0,.241.2,1.546,1.546,0,0,0,.222.074c.093.019.185.037.315.056v.445Z" transform="translate(-147.182 -13.91)"/><path d="M228.151,23.245a4.064,4.064,0,0,1-1.927-.519l-.167.389h-.445l-.074-2.15h.426a2.51,2.51,0,0,0,.3.593,3.638,3.638,0,0,0,.463.593,3.191,3.191,0,0,0,.63.445,1.753,1.753,0,0,0,.741.185,1.262,1.262,0,0,0,.778-.2.77.77,0,0,0,.259-.63.685.685,0,0,0-.111-.389,1.124,1.124,0,0,0-.315-.259,3.126,3.126,0,0,0-.5-.2c-.185-.056-.408-.111-.667-.2a3.927,3.927,0,0,1-.667-.241,2.01,2.01,0,0,1-.575-.371,1.655,1.655,0,0,1-.408-.537,1.592,1.592,0,0,1-.148-.76,1.547,1.547,0,0,1,.686-1.316,2.992,2.992,0,0,1,1.8-.5,3.93,3.93,0,0,1,.964.111,4.359,4.359,0,0,1,.741.241l.13-.334h.445l.093,1.964h-.408a2.429,2.429,0,0,0-.686-1.038,1.572,1.572,0,0,0-1.056-.445,1.135,1.135,0,0,0-.7.185.624.624,0,0,0-.259.519.664.664,0,0,0,.371.63,4.648,4.648,0,0,0,1.038.371,3.745,3.745,0,0,1,1.52.723,1.594,1.594,0,0,1,.482,1.168,1.655,1.655,0,0,1-.741,1.464,3.779,3.779,0,0,1-2,.519Z" transform="translate(-183.413 -14.071)"/></g></g></g><g transform="translate(1099 303.793)"><path d="M10,10h94.94v94.719H10Z" transform="translate(-5.47 -5.47)" fill="#2e001e"/><path d="M0,0V103.779H104V0ZM4.333,4.435H99.667V99.344H4.333Z" fill="#ff2bc2"/><path d="M99.561,74.888a5.423,5.423,0,0,0-2.442-.453c-5.305,0-8.842,4.394-8.842,11.687,0,8.335,3.621,11.687,8.337,11.687a7.438,7.438,0,0,0,2.905-.5V74.888ZM80.7,86.485c0-10.555,6.316-18.8,16.673-18.8a17.364,17.364,0,0,1,2.189.091V56a.438.438,0,0,1,.421-.453h6.779c.337,0,.421.136.421.362v41.4a34.69,34.69,0,0,0,.211,4.439c0,.317,0,.362-.253.5a23.617,23.617,0,0,1-10.779,2.627C87.224,104.876,80.7,98.806,80.7,86.485ZM66.34,79.146l11.789,24.6c.211.362.084.725-.253.725H70.551a.824.824,0,0,1-.884-.589q-4.042-8.969-8.253-18.618H61.33c-2.526,6.07-5.305,12.684-8,18.663a.8.8,0,0,1-.758.5H45.583c-.421,0-.463-.362-.253-.634L56.867,79.916,45.709,56.179A.4.4,0,0,1,46,55.5h7.242c.421,0,.632.091.758.5,2.653,6.025,5.347,11.959,7.874,18.029h.084c2.442-5.979,5.137-12,7.705-17.938.211-.362.337-.589.758-.589H77.2c.337,0,.463.272.253.679L66.34,79.146Z" transform="translate(-24.728 -31.345)" fill="#ff2bc2"/></g><g transform="translate(-42 62)"><rect width="104" height="104" transform="translate(1141 358)" fill="#cd6799"/><g transform="translate(1151.546 378.546)"><path d="M71.642,36.1a17.117,17.117,0,0,0-7.49,1.737,15.783,15.783,0,0,1-1.676-3.881,10.421,10.421,0,0,1-.151-3.262,28.97,28.97,0,0,1,.982-3.518c-.015-.151-.181-.861-1.842-.876s-3.1.317-3.262.755a18.221,18.221,0,0,0-.695,2.461c-.287,1.51-3.322,6.9-5.059,9.725A10.49,10.49,0,0,1,51.3,36.4a10.421,10.421,0,0,1-.151-3.262,28.969,28.969,0,0,1,.982-3.518c-.015-.151-.181-.861-1.842-.876s-3.1.317-3.262.755-.347,1.465-.695,2.461-4.379,10-5.436,12.322c-.544,1.193-1.012,2.144-1.344,2.794h0a.688.688,0,0,1-.06.121c-.287.559-.453.861-.453.861v.015c-.227.408-.468.785-.589.785a5.053,5.053,0,0,1,.03-2.567c.6-3.126,2.039-7.988,2.023-8.154,0-.091.272-.936-.936-1.374a1.5,1.5,0,0,0-1.706.287c-.106,0-.181.257-.181.257s1.314-5.466-2.507-5.466c-2.386,0-5.678,2.612-7.309,4.968-1.027.559-3.216,1.752-5.557,3.035-.891.5-1.812,1-2.673,1.465-.06-.06-.121-.136-.181-.2C14.834,36.171,6.287,32.683,6.649,26.053c.136-2.416.966-8.758,16.414-16.46,12.715-6.267,22.832-4.53,24.584-.68,2.507,5.5-5.421,15.7-18.559,17.184-5.013.559-7.641-1.374-8.305-2.1-.695-.755-.8-.8-1.057-.649-.423.227-.151.906,0,1.3a7.754,7.754,0,0,0,4.742,3.73c2.416.785,8.29,1.223,15.4-1.525C47.829,23.773,54.05,15.211,52.223,8.038,50.4.76,38.315-1.641,26.884,2.421,20.089,4.837,12.72,8.642,7.419,13.6,1.122,19.485.126,24.6.534,26.748,2,34.359,12.493,39.312,16.691,42.981c-.211.121-.408.227-.574.317-2.1,1.042-10.1,5.225-12.1,9.649-2.265,5.013.362,8.607,2.1,9.091,5.391,1.495,10.933-1.193,13.908-5.633S22.641,46.2,21.267,43.555a.316.316,0,0,0-.06-.091c.544-.317,1.1-.649,1.646-.966,1.072-.634,2.129-1.223,3.035-1.706a19.9,19.9,0,0,0-1.072,5.5c-.227,2.839.936,6.523,2.461,7.973a2.72,2.72,0,0,0,1.993.649c1.782,0,2.582-1.48,3.473-3.232,1.087-2.144,2.069-4.636,2.069-4.636s-1.223,6.735,2.1,6.735c1.208,0,2.431-1.57,2.975-2.371v.015s.03-.045.091-.151c.121-.2.2-.317.2-.317v-.03c.483-.846,1.57-2.763,3.186-5.95,2.084-4.107,4.092-9.242,4.092-9.242a26.243,26.243,0,0,0,.8,3.337,31.424,31.424,0,0,0,1.721,3.866c-.483.68-.785,1.057-.785,1.057l.015.015c-.393.513-.815,1.072-1.284,1.616a48.134,48.134,0,0,0-3.881,4.862,1.32,1.32,0,0,0,.362,1.782,3.3,3.3,0,0,0,2.023.332,9.292,9.292,0,0,0,3.035-.695,10.187,10.187,0,0,0,2.612-1.374,5.846,5.846,0,0,0,2.507-5.149,10.4,10.4,0,0,0-.951-3.639c.151-.211.287-.423.438-.634a69.175,69.175,0,0,0,4.53-7.822,26.244,26.244,0,0,0,.8,3.337,22.354,22.354,0,0,0,1.465,3.322,14.353,14.353,0,0,0-4.409,5.693c-.951,2.748-.211,3.987,1.193,4.273a4.209,4.209,0,0,0,2.2-.453,10.042,10.042,0,0,0,2.794-1.435c1.616-1.193,3.171-2.854,3.081-5.1a9.649,9.649,0,0,0-.695-3.02,15.815,15.815,0,0,1,8.018-.921c7.188.846,8.607,5.331,8.336,7.218a4.777,4.777,0,0,1-2.28,3.232c-.5.317-.664.423-.619.649.06.332.3.317.725.257a5.614,5.614,0,0,0,3.911-5c.227-4.44-4-9.287-11.476-9.242ZM16.193,54.79c-2.386,2.6-5.708,3.579-7.143,2.748-1.54-.891-.936-4.726,1.993-7.475a38.041,38.041,0,0,1,5.6-4.183c.347-.211.861-.513,1.48-.891.106-.06.166-.091.166-.091h0l.362-.227A10.314,10.314,0,0,1,16.193,54.79ZM33.558,42.981c-.831,2.023-2.567,7.2-3.624,6.916-.906-.242-1.465-4.168-.181-8.049a18.285,18.285,0,0,1,2.824-5.18c1.3-1.45,2.733-1.933,3.081-1.344.438.77-1.586,6.388-2.1,7.656Zm14.33,6.856c-.347.181-.68.3-.831.211-.106-.06.151-.3.151-.3s1.8-1.933,2.507-2.809c.408-.513.891-1.117,1.4-1.8v.2c0,2.31-2.235,3.866-3.232,4.5Zm11.054-2.522c-.257-.181-.211-.785.649-2.673a10.061,10.061,0,0,1,2.461-3.171,4.275,4.275,0,0,1,.242,1.389,4.568,4.568,0,0,1-3.352,4.455Z" transform="translate(0 0)" fill="#fff"/></g></g><g transform="translate(-42 62)"><rect width="104" height="104" transform="translate(1024 358)" fill="#03569b"/><g transform="translate(1026.879 385.034)"><g transform="translate(4.121 8.966)"><g transform="translate(0 0)"><g clip-path="url(#b)"><path d="M19.038,33.31l13.9-13.9H22.83l-8.843,8.846Z" transform="translate(-6.406 -4.251)" fill="#39cefd"/></g></g><g transform="translate(0 0)"><g clip-path="url(#b)"><path d="M4.682,17.227,21.105.8h10.1L9.736,22.281Z" transform="translate(-4.682 -0.804)" fill="#39cefd"/></g></g><g transform="translate(0 0)"><g clip-path="url(#b)"><path d="M23.978,39.111h10.1L25.24,30.268l-5.054,5.054Z" transform="translate(-7.555 -6.263)" fill="#03569b"/></g></g><g transform="translate(0 0)"><g clip-path="url(#b)"><path d="M25.24,30.268l-5.054,5.054,7.5-2.6Z" transform="translate(-7.555 -6.263)" fill="url(#f)"/></g></g><g transform="translate(0 0)"><g clip-path="url(#b)"><path d="M13.987,29.115l5.054-5.054,5.054,5.054-5.054,5.057Z" transform="translate(-6.406 -5.113)" fill="#16b9fd"/></g></g><path d="M31.21,15.962l-8.843,8.846,8.843,8.846h-10.1l-3.792-3.792-5.054-5.054,8.846-8.846ZM21.105.8,4.682,17.227l5.054,5.054L31.21.8h-10.1Z" transform="translate(-4.682 -0.804)" fill="url(#h)"/></g><g transform="translate(33.849 17.771)"><path d="M42.549,20.809h8.856V22.5h-7v5.229H50.73v1.687H44.4V35.99H42.634V20.809Z" transform="translate(-42.549 -20.809)" fill="#fff"/><path d="M56.008,20.809h1.771V36.075H56.008Z" transform="translate(-45.043 -20.809)" fill="#fff"/><path d="M65.439,37.41A4,4,0,0,1,62.4,36.229a4.712,4.712,0,0,1-1.012-3.205V26.192h1.771v6.579a3.491,3.491,0,0,0,.675,2.277,2.541,2.541,0,0,0,1.94.759,2.6,2.6,0,0,0,1.6-.506,3.153,3.153,0,0,0,1.1-1.265,3.839,3.839,0,0,0,.422-1.687V26.192h1.771v10.88H68.982v-1.6H68.9a3.708,3.708,0,0,1-1.434,1.349A3.362,3.362,0,0,1,65.439,37.41Z" transform="translate(-46.041 -21.806)" fill="#fff"/><path d="M80.324,36.55a3.384,3.384,0,0,1-1.265-.253,3.483,3.483,0,0,1-.928-.59,3.745,3.745,0,0,1-.675-.928,2.817,2.817,0,0,1-.253-1.265V27.1h-1.94V25.5H77.2V22.465h1.771V25.5h2.615v1.6H78.974v5.9a2.14,2.14,0,0,0,.337,1.349,1.415,1.415,0,0,0,1.181.506,1.936,1.936,0,0,0,1.181-.337V36.3c-.253.084-.422.169-.675.253Z" transform="translate(-48.611 -21.116)" fill="#fff"/><path d="M89.783,36.55a3.384,3.384,0,0,1-1.265-.253,3.483,3.483,0,0,1-.928-.59,3.745,3.745,0,0,1-.675-.928,2.816,2.816,0,0,1-.253-1.265V27.1H84.891V25.5h1.94V22.465H88.6V25.5h2.615v1.6H88.6v5.9a2.14,2.14,0,0,0,.337,1.349,1.415,1.415,0,0,0,1.181.506,1.936,1.936,0,0,0,1.181-.337V36.3c-.253.084-.422.169-.675.253Z" transform="translate(-50.395 -21.116)" fill="#fff"/><path d="M99.5,37.352a5.308,5.308,0,0,1-2.783-.759,5.582,5.582,0,0,1-1.94-2.024,6.617,6.617,0,0,1-.675-2.952,6.523,6.523,0,0,1,.675-2.868,5.612,5.612,0,0,1,1.856-2.109,5.139,5.139,0,0,1,7.338,1.94,6.255,6.255,0,0,1,.675,2.868,1.251,1.251,0,0,1-.084.59H95.876a5.165,5.165,0,0,0,.59,2.109,3.217,3.217,0,0,0,1.349,1.265,4.149,4.149,0,0,0,1.687.422,3.535,3.535,0,0,0,3.205-1.94l1.518.759a5.83,5.83,0,0,1-1.94,2.109,6.209,6.209,0,0,1-2.783.59Zm3.121-6.916a2.8,2.8,0,0,0-.422-1.349,3.6,3.6,0,0,0-1.1-1.181A3.207,3.207,0,0,0,99.25,27.4a2.987,2.987,0,0,0-2.193.843,4.238,4.238,0,0,0-1.181,2.193Z" transform="translate(-52.103 -21.749)" fill="#fff"/><path d="M109.531,26.135h1.687v1.771h.084a2.608,2.608,0,0,1,1.265-1.434,3.282,3.282,0,0,1,1.94-.59,2.817,2.817,0,0,1,1.265.253v1.94a2.888,2.888,0,0,0-1.518-.337,2.843,2.843,0,0,0-1.434.422,4.93,4.93,0,0,0-1.1,1.181,3.488,3.488,0,0,0-.422,1.6v6.073h-1.771Z" transform="translate(-54.961 -21.749)" fill="#fff"/></g></g></g><g transform="translate(-42 62)"><rect width="104" height="104" transform="translate(907 358)" fill="#41873f"/><g transform="translate(914.15 383.025)"><path d="M207.021,209.226a1.767,1.767,0,0,1-.846-.222l-2.68-1.592c-.4-.222-.2-.3-.081-.343a4.882,4.882,0,0,0,1.209-.544.185.185,0,0,1,.2.02l2.056,1.229a.256.256,0,0,0,.242,0l8.041-4.655a.232.232,0,0,0,.121-.222v-9.29a.232.232,0,0,0-.121-.222l-8.041-4.635a.256.256,0,0,0-.242,0l-8.041,4.635a.253.253,0,0,0-.121.222v9.29a.253.253,0,0,0,.121.222l2.2,1.27c1.189.6,1.935-.1,1.935-.806v-9.169a.245.245,0,0,1,.242-.242h1.028a.245.245,0,0,1,.242.242v9.169A2.235,2.235,0,0,1,202.1,206.1a3.457,3.457,0,0,1-1.854-.5l-2.116-1.209a1.7,1.7,0,0,1-.846-1.471v-9.29a1.7,1.7,0,0,1,.846-1.471l8.041-4.655a1.8,1.8,0,0,1,1.693,0l8.041,4.655a1.7,1.7,0,0,1,.846,1.471v9.29a1.7,1.7,0,0,1-.846,1.471l-8.041,4.655A2.063,2.063,0,0,1,207.021,209.226Zm2.479-6.388c-3.527,0-4.252-1.612-4.252-2.983a.245.245,0,0,1,.242-.242h1.048a.207.207,0,0,1,.222.2c.161,1.068.625,1.592,2.761,1.592,1.693,0,2.418-.383,2.418-1.29,0-.524-.2-.907-2.841-1.169-2.2-.222-3.567-.705-3.567-2.459,0-1.632,1.37-2.6,3.668-2.6,2.58,0,3.849.887,4.01,2.821a.325.325,0,0,1-.06.181.249.249,0,0,1-.161.081h-1.048a.236.236,0,0,1-.222-.181c-.242-1.108-.867-1.471-2.519-1.471-1.854,0-2.076.645-2.076,1.129,0,.584.262.766,2.761,1.088,2.479.322,3.648.786,3.648,2.519C213.51,201.83,212.059,202.838,209.5,202.838Z" transform="translate(-162.697 -154.633)" fill="#fff"/><path d="M19.376,76.562a1.025,1.025,0,0,0-.524-.887l-8.545-4.917a1.24,1.24,0,0,0-.464-.141H9.763a.958.958,0,0,0-.464.141L.755,75.675a1.025,1.025,0,0,0-.524.887l.02,13.22a.5.5,0,0,0,.262.443.457.457,0,0,0,.5,0l5.078-2.9a1.025,1.025,0,0,0,.524-.887V80.25a1.025,1.025,0,0,1,.524-.887L9.3,78.113a.976.976,0,0,1,.524-.141.866.866,0,0,1,.5.141l2.156,1.249a1.025,1.025,0,0,1,.524.887v6.187a1.025,1.025,0,0,0,.524.887l5.078,2.9a.492.492,0,0,0,.524,0,.5.5,0,0,0,.262-.443l-.02-13.22Z" transform="translate(0 -58.304)" fill="#fff"/><path d="M281.447.06a.555.555,0,0,0-.5,0,.525.525,0,0,0-.262.443V13.6a.363.363,0,0,1-.544.322L278,12.7a1.039,1.039,0,0,0-1.028,0l-8.545,4.937a1.025,1.025,0,0,0-.524.887v9.855a1.025,1.025,0,0,0,.524.887l8.545,4.937a1.039,1.039,0,0,0,1.028,0l8.545-4.937a1.025,1.025,0,0,0,.524-.887V3.809a1.033,1.033,0,0,0-.524-.907L281.447.06Zm-.786,25.07a.231.231,0,0,1-.121.222l-2.922,1.693a.3.3,0,0,1-.262,0l-2.922-1.693a.253.253,0,0,1-.121-.222V21.744a.231.231,0,0,1,.121-.222l2.922-1.693a.3.3,0,0,1,.262,0l2.922,1.693a.253.253,0,0,1,.121.222V25.13Z" transform="translate(-221 0)" fill="#fff"/><g transform="translate(70.301 12.439)"><path d="M19.621,10.063a1.007,1.007,0,0,0,.5-.887v-2.4a1.05,1.05,0,0,0-.5-.887L11.137.974a1.039,1.039,0,0,0-1.028,0L1.564,5.911A1.025,1.025,0,0,0,1.04,6.8v9.855a1.025,1.025,0,0,0,.524.887l8.484,4.837a1,1,0,0,0,1.008,0l5.139-2.862a.506.506,0,0,0,0-.887L7.61,13.69a.525.525,0,0,1-.262-.443V10.163A.5.5,0,0,1,7.61,9.72l2.68-1.532a.492.492,0,0,1,.524,0l2.68,1.532a.525.525,0,0,1,.262.443v2.418a.5.5,0,0,0,.262.443.492.492,0,0,0,.524,0l5.078-2.962Z" transform="translate(-1.04 -0.838)" fill="#fff"/><path d="M47.039,50.941a.183.183,0,0,1,.2,0l1.632.947a.212.212,0,0,1,.1.181v1.894a.212.212,0,0,1-.1.181l-1.632.947a.183.183,0,0,1-.2,0l-1.632-.947a.212.212,0,0,1-.1-.181V52.07a.212.212,0,0,1,.1-.181l1.632-.947Z" transform="translate(-37.587 -42.18)" fill="#fff"/></g><g transform="translate(23.568 10.822)"><path d="M10.478,1.205a1.039,1.039,0,0,0-1.028,0L.966,6.1a1.007,1.007,0,0,0-.5.887V16.8a1.05,1.05,0,0,0,.5.887l8.484,4.9a1.039,1.039,0,0,0,1.028,0l8.484-4.9a1.007,1.007,0,0,0,.5-.887V6.989a1.05,1.05,0,0,0-.5-.887l-8.484-4.9Z" transform="translate(-0.382 0.588)" fill="url(#i)"/><g transform="translate(0 1.654)"><path d="M9.048,1.19l-8.5,4.9A1.045,1.045,0,0,0,0,6.974v9.814a.971.971,0,0,0,.262.645L9.814,1.069a1.151,1.151,0,0,0-.766.121Z" transform="translate(0 -1.051)" fill="none"/><path d="M56.632,47.378a1.233,1.233,0,0,0,.242-.1l8.5-4.9a1.025,1.025,0,0,0,.524-.887V31.68a1.026,1.026,0,0,0-.3-.705l-8.968,16.4Z" transform="translate(-46.757 -25.757)" fill="none"/><path d="M19.841,6.269l-8.524-4.9a1.4,1.4,0,0,0-.262-.1L1.5,17.635a1.06,1.06,0,0,0,.282.242l8.524,4.9a.983.983,0,0,0,.786.1l8.968-16.4a1.056,1.056,0,0,0-.222-.2Z" transform="translate(-1.241 -1.233)" fill="url(#j)"/></g><g transform="translate(0 0)"><path d="M65.33,26.121V16.306a1.045,1.045,0,0,0-.544-.887l-8.524-4.9a.89.89,0,0,0-.322-.121l9.331,15.941a.406.406,0,0,0,.06-.222Z" transform="translate(-46.185 -8.729)" fill="none"/><path d="M.544,39.085A1.045,1.045,0,0,0,0,39.971v9.814a1.09,1.09,0,0,0,.544.887l8.524,4.9a.949.949,0,0,0,.665.121L.6,39.065l-.06.02Z" transform="translate(0 -32.394)" fill="none"/><path d="M49.818.809,49.7.869h.161Z" transform="translate(-41.032 -0.809)" fill-rule="evenodd" fill="url(#k)"/><path d="M21.388,26.921a1.146,1.146,0,0,0,.5-.645L12.541,10.315a1.024,1.024,0,0,0-.725.121L3.352,15.313l9.129,16.646a1.4,1.4,0,0,0,.383-.121l8.524-4.917Z" transform="translate(-2.767 -8.642)" fill-rule="evenodd" fill="url(#l)"/><path d="M111.013,104.234l-.06-.1v.141Z" transform="translate(-91.606 -86.117)" fill-rule="evenodd" fill="url(#m)"/><path d="M64.71,102.487l-8.5,4.9a1.216,1.216,0,0,1-.383.121l.161.3,9.431-5.461v-.121l-.242-.4a.937.937,0,0,1-.464.665Z" transform="translate(-46.089 -84.209)" fill-rule="evenodd" fill="url(#n)"/><path d="M64.71,102.487l-8.5,4.9a1.216,1.216,0,0,1-.383.121l.161.3,9.431-5.461v-.121l-.242-.4a.937.937,0,0,1-.464.665Z" transform="translate(-46.089 -84.209)" fill-rule="evenodd" fill="url(#o)"/></g></g></g></g><g transform="translate(-42 55)"><rect width="104" height="104" transform="translate(1141 481)" fill="#5382a1"/><g transform="translate(1165.483 496.571)"><path d="M69.421,267.473s-2.758,1.6,1.963,2.147a41.306,41.306,0,0,0,14.947-.634,26,26,0,0,0,3.972,1.939c-14.131,6.056-31.98-.351-20.881-3.452" transform="translate(-51.759 -211.278)" fill="#fff"/><path d="M59.588,229.659s-3.094,2.29,1.631,2.779a58.309,58.309,0,0,0,19.285-.926,8.559,8.559,0,0,0,2.971,1.811c-17.085,5-36.114.394-23.887-3.664" transform="translate(-43.653 -181.368)" fill="#fff"/><path d="M131.855,90.685c3.482,4.009-.915,7.616-.915,7.616s8.841-4.564,4.781-10.279c-3.792-5.33-6.7-7.978,9.043-17.108,0,0-24.711,6.172-12.909,19.771" transform="translate(-101.363 -55.799)" fill="#e76f00"/><path d="M49.181,293.131s2.041,1.682-2.248,2.983c-8.156,2.471-33.948,3.217-41.112.1-2.576-1.12,2.254-2.675,3.774-3a9.8,9.8,0,0,1,2.49-.28c-2.864-2.018-18.513,3.962-7.949,5.674,28.811,4.672,52.519-2.1,45.046-5.475" transform="translate(0 -231.091)" fill="#fff"/><path d="M40.929,190.435s-13.119,3.116-4.646,4.248c3.578.479,10.71.371,17.353-.186,5.429-.458,10.881-1.432,10.881-1.432a23.03,23.03,0,0,0-3.3,1.766c-13.322,3.5-39.058,1.874-31.649-1.71a24.823,24.823,0,0,1,11.36-2.685" transform="translate(-21.94 -150.332)" fill="#fff"/><path d="M200.476,201c13.543-7.037,7.281-13.8,2.911-12.889a10.136,10.136,0,0,0-1.549.416A2.468,2.468,0,0,1,203,187.63c8.646-3.04,15.3,8.965-2.791,13.72a1.178,1.178,0,0,0,.272-.355" transform="translate(-157.954 -147.737)" fill="#fff"/><path d="M99.287.371s7.5,7.5-7.114,19.04c-11.719,9.255-2.672,14.531,0,20.56-6.84-6.172-11.86-11.6-8.493-16.661C88.619,15.888,102.313,12.289,99.287.371" transform="translate(-64.929)" fill="#e76f00"/><path d="M56.644,319.638c13,.832,32.961-.462,33.434-6.613,0,0-.909,2.332-10.743,4.184a106.878,106.878,0,0,1-32.9.506s1.662,1.375,10.205,1.923" transform="translate(-36.325 -247.311)" fill="#fff"/></g></g><g transform="translate(-42 55)"><rect width="104" height="104" transform="translate(907 483)" fill="#f90"/><g transform="translate(924.502 696.63)"><path d="M84.267,80.69l-2.455,8.527H80.745l-1.911-6.334-1.752,6.334H75.994L73.443,80.69h1.319l1.858,6.355,1.769-6.355h.973l1.923,6.375L83.2,80.69Z" transform="translate(-83.164 -235.962)" fill="#fff" fill-rule="evenodd"/><path d="M84.267,80.69l-2.455,8.527H80.745l-1.911-6.334-1.752,6.334H75.994L73.443,80.69h1.319l1.858,6.355,1.769-6.355h.973l1.923,6.375L83.2,80.69Z" transform="translate(-83.164 -235.962)" fill="#fff" fill-rule="evenodd"/><path d="M102.965,86.425l1.236.253a3.476,3.476,0,0,1-1.314,1.811,3.786,3.786,0,0,1-2.3.717,3.576,3.576,0,0,1-2.823-1.23A5.376,5.376,0,0,1,97.8,81.46a3.616,3.616,0,0,1,2.816-1.255A3.4,3.4,0,0,1,103.3,81.36a5.2,5.2,0,0,1,1.041,3.458H98.156a3.311,3.311,0,0,0,.809,2.61,2.629,2.629,0,0,0,1.71.675,2.337,2.337,0,0,0,2.291-1.679Zm-.072-2.6a3.7,3.7,0,0,0-.236-1.274,2.174,2.174,0,0,0-.741-.95,2.031,2.031,0,0,0-1.255-.392,2.239,2.239,0,0,0-1.672.709,2.937,2.937,0,0,0-.771,1.907Z" transform="translate(-95.073 -235.713)" fill="#fff" fill-rule="evenodd"/><path d="M102.965,86.425l1.236.253a3.476,3.476,0,0,1-1.314,1.811,3.786,3.786,0,0,1-2.3.717,3.576,3.576,0,0,1-2.823-1.23A5.376,5.376,0,0,1,97.8,81.46a3.616,3.616,0,0,1,2.816-1.255A3.4,3.4,0,0,1,103.3,81.36a5.2,5.2,0,0,1,1.041,3.458H98.156a3.311,3.311,0,0,0,.809,2.61,2.629,2.629,0,0,0,1.71.675,2.337,2.337,0,0,0,2.291-1.679Zm-.072-2.6a3.7,3.7,0,0,0-.236-1.274,2.174,2.174,0,0,0-.741-.95,2.031,2.031,0,0,0-1.255-.392,2.239,2.239,0,0,0-1.672.709,2.937,2.937,0,0,0-.771,1.907Z" transform="translate(-95.073 -235.713)" fill="#fff" fill-rule="evenodd"/><path d="M116.615,86.079h-.639V74.566h1.329v4.408a2.778,2.778,0,0,1,2.509-1.658,3.1,3.1,0,0,1,2.454,1.158,5.042,5.042,0,0,1,.989,3.363,5.141,5.141,0,0,1-.973,3.19,3.032,3.032,0,0,1-2.533,1.289,2.911,2.911,0,0,1-2.663-1.648l-.474,1.411Zm.69-3.343a2.6,2.6,0,0,0,.805,1.906,2.321,2.321,0,0,0,1.505.593,1.909,1.909,0,0,0,1.632-.879,4.112,4.112,0,0,0,.62-2.408,4.8,4.8,0,0,0-.6-2.589,1.872,1.872,0,0,0-1.661-.942,2.082,2.082,0,0,0-1.506.67,2.846,2.846,0,0,0-.8,1.734v1.915Z" transform="translate(-104.959 -232.824)" fill="#fff" fill-rule="evenodd"/><path d="M116.615,86.079h-.639V74.566h1.329v4.408a2.778,2.778,0,0,1,2.509-1.658,3.1,3.1,0,0,1,2.454,1.158,5.042,5.042,0,0,1,.989,3.363,5.141,5.141,0,0,1-.973,3.19,3.032,3.032,0,0,1-2.533,1.289,2.911,2.911,0,0,1-2.663-1.648l-.474,1.411Zm.69-3.343a2.6,2.6,0,0,0,.805,1.906,2.321,2.321,0,0,0,1.505.593,1.909,1.909,0,0,0,1.632-.879,4.112,4.112,0,0,0,.62-2.408,4.8,4.8,0,0,0-.6-2.589,1.872,1.872,0,0,0-1.661-.942,2.082,2.082,0,0,0-1.506.67,2.846,2.846,0,0,0-.8,1.734v1.915Z" transform="translate(-104.959 -232.824)" fill="#fff" fill-rule="evenodd"/><path d="M137.853,86.759l1.267-.262q.422,1.607,2.669,1.607a2.531,2.531,0,0,0,1.4-.37,1.174,1.174,0,0,0,.574-1.044q0-1-1.462-1.271l-1.8-.342a3.277,3.277,0,0,1-1.679-.794,2.052,2.052,0,0,1-.624-1.562,2.258,2.258,0,0,1,.852-1.794,3.432,3.432,0,0,1,2.294-.722q2.775,0,3.425,2.169l-1.215.261a2.077,2.077,0,0,0-2.149-1.328,2.426,2.426,0,0,0-1.328.332,1.044,1.044,0,0,0-.518.928q0,.94,1.325,1.184l1.66.305q2.608.473,2.607,2.528a2.256,2.256,0,0,1-.971,1.9,4.219,4.219,0,0,1-2.583.724q-3.03,0-3.748-2.447Z" transform="translate(-116.168 -235.713)" fill="#fff" fill-rule="evenodd"/><path d="M137.853,86.759l1.267-.262q.422,1.607,2.669,1.607a2.531,2.531,0,0,0,1.4-.37,1.174,1.174,0,0,0,.574-1.044q0-1-1.462-1.271l-1.8-.342a3.277,3.277,0,0,1-1.679-.794,2.052,2.052,0,0,1-.624-1.562,2.258,2.258,0,0,1,.852-1.794,3.432,3.432,0,0,1,2.294-.722q2.775,0,3.425,2.169l-1.215.261a2.077,2.077,0,0,0-2.149-1.328,2.426,2.426,0,0,0-1.328.332,1.044,1.044,0,0,0-.518.928q0,.94,1.325,1.184l1.66.305q2.608.473,2.607,2.528a2.256,2.256,0,0,1-.971,1.9,4.219,4.219,0,0,1-2.583.724q-3.03,0-3.748-2.447Z" transform="translate(-116.168 -235.713)" fill="#fff" fill-rule="evenodd"/><path d="M160.716,86.425l1.236.253a3.47,3.47,0,0,1-1.315,1.811,3.783,3.783,0,0,1-2.3.717,3.574,3.574,0,0,1-2.823-1.23,5.375,5.375,0,0,1,.043-6.516A3.615,3.615,0,0,1,158.37,80.2a3.4,3.4,0,0,1,2.684,1.156,5.2,5.2,0,0,1,1.041,3.458h-6.189a3.313,3.313,0,0,0,.809,2.61,2.63,2.63,0,0,0,1.71.675,2.337,2.337,0,0,0,2.291-1.679Zm-.072-2.6a3.707,3.707,0,0,0-.236-1.274,2.177,2.177,0,0,0-.741-.95,2.031,2.031,0,0,0-1.255-.392,2.24,2.24,0,0,0-1.672.709,2.937,2.937,0,0,0-.771,1.907Z" transform="translate(-124.664 -235.713)" fill="#fff" fill-rule="evenodd"/><path d="M160.716,86.425l1.236.253a3.47,3.47,0,0,1-1.315,1.811,3.783,3.783,0,0,1-2.3.717,3.574,3.574,0,0,1-2.823-1.23,5.375,5.375,0,0,1,.043-6.516A3.615,3.615,0,0,1,158.37,80.2a3.4,3.4,0,0,1,2.684,1.156,5.2,5.2,0,0,1,1.041,3.458h-6.189a3.313,3.313,0,0,0,.809,2.61,2.63,2.63,0,0,0,1.71.675,2.337,2.337,0,0,0,2.291-1.679Zm-.072-2.6a3.707,3.707,0,0,0-.236-1.274,2.177,2.177,0,0,0-.741-.95,2.031,2.031,0,0,0-1.255-.392,2.24,2.24,0,0,0-1.672.709,2.937,2.937,0,0,0-.771,1.907Z" transform="translate(-124.664 -235.713)" fill="#fff" fill-rule="evenodd"/><path d="M174.406,88.969h-1.328V80.441h1.164v1.988a4.234,4.234,0,0,1,1.235-1.81,2.259,2.259,0,0,1,1.269-.414c.135,0,.31.01.523.031V81.5H177a2.333,2.333,0,0,0-1.819.814,3.3,3.3,0,0,0-.775,2.139v4.514Z" transform="translate(-134.217 -235.713)" fill="#fff" fill-rule="evenodd"/><path d="M174.406,88.969h-1.328V80.441h1.164v1.988a4.234,4.234,0,0,1,1.235-1.81,2.259,2.259,0,0,1,1.269-.414c.135,0,.31.01.523.031V81.5H177a2.333,2.333,0,0,0-1.819.814,3.3,3.3,0,0,0-.775,2.139v4.514Z" transform="translate(-134.217 -235.713)" fill="#fff" fill-rule="evenodd"/><path d="M190.858,80.69l-2.944,8.527h-1.377l-3.043-8.527h1.47l2.367,6.931,2.349-6.931Z" transform="translate(-139.555 -235.962)" fill="#fff" fill-rule="evenodd"/><path d="M190.858,80.69l-2.944,8.527h-1.377l-3.043-8.527h1.47l2.367,6.931,2.349-6.931Z" transform="translate(-139.555 -235.962)" fill="#fff" fill-rule="evenodd"/><path d="M200.774,74.566H202.2v1.473h-1.421Zm.062,2.986h1.328v8.527h-1.328Z" transform="translate(-148.409 -232.824)" fill="#fff" fill-rule="evenodd"/><path d="M200.774,74.566H202.2v1.473h-1.421Zm.062,2.986h1.328v8.527h-1.328Z" transform="translate(-148.409 -232.824)" fill="#fff" fill-rule="evenodd"/><path d="M211.863,85.982l1.194.211a3.815,3.815,0,0,1-1.122,2.213,3.386,3.386,0,0,1-4.855-.5,5.35,5.35,0,0,1-.924-3.178,5.208,5.208,0,0,1,.975-3.232,3.147,3.147,0,0,1,2.653-1.289,3.027,3.027,0,0,1,2.231.833,3.733,3.733,0,0,1,1.042,2.152l-1.194.228q-.337-2.11-2.04-2.111a1.881,1.881,0,0,0-1.685.932,4.454,4.454,0,0,0-.59,2.416,4.67,4.67,0,0,0,.586,2.543,1.856,1.856,0,0,0,1.648.906q1.642,0,2.081-2.121Z" transform="translate(-151.168 -235.713)" fill="#fff" fill-rule="evenodd"/><path d="M211.863,85.982l1.194.211a3.815,3.815,0,0,1-1.122,2.213,3.386,3.386,0,0,1-4.855-.5,5.35,5.35,0,0,1-.924-3.178,5.208,5.208,0,0,1,.975-3.232,3.147,3.147,0,0,1,2.653-1.289,3.027,3.027,0,0,1,2.231.833,3.733,3.733,0,0,1,1.042,2.152l-1.194.228q-.337-2.11-2.04-2.111a1.881,1.881,0,0,0-1.685.932,4.454,4.454,0,0,0-.59,2.416,4.67,4.67,0,0,0,.586,2.543,1.856,1.856,0,0,0,1.648.906q1.642,0,2.081-2.121Z" transform="translate(-151.168 -235.713)" fill="#fff" fill-rule="evenodd"/><path d="M229.072,86.425l1.236.253a3.472,3.472,0,0,1-1.315,1.811,3.783,3.783,0,0,1-2.3.717,3.576,3.576,0,0,1-2.824-1.23,5.375,5.375,0,0,1,.043-6.516,3.615,3.615,0,0,1,2.816-1.255,3.4,3.4,0,0,1,2.684,1.156,5.2,5.2,0,0,1,1.041,3.458h-6.189a3.312,3.312,0,0,0,.808,2.61,2.63,2.63,0,0,0,1.71.675,2.337,2.337,0,0,0,2.291-1.679ZM229,83.83a3.7,3.7,0,0,0-.236-1.274,2.174,2.174,0,0,0-.741-.95,2.032,2.032,0,0,0-1.256-.392,2.239,2.239,0,0,0-1.672.709,2.933,2.933,0,0,0-.771,1.907Z" transform="translate(-159.69 -235.713)" fill="#fff" fill-rule="evenodd"/><path d="M229.072,86.425l1.236.253a3.472,3.472,0,0,1-1.315,1.811,3.783,3.783,0,0,1-2.3.717,3.576,3.576,0,0,1-2.824-1.23,5.375,5.375,0,0,1,.043-6.516,3.615,3.615,0,0,1,2.816-1.255,3.4,3.4,0,0,1,2.684,1.156,5.2,5.2,0,0,1,1.041,3.458h-6.189a3.312,3.312,0,0,0,.808,2.61,2.63,2.63,0,0,0,1.71.675,2.337,2.337,0,0,0,2.291-1.679ZM229,83.83a3.7,3.7,0,0,0-.236-1.274,2.174,2.174,0,0,0-.741-.95,2.032,2.032,0,0,0-1.256-.392,2.239,2.239,0,0,0-1.672.709,2.933,2.933,0,0,0-.771,1.907Z" transform="translate(-159.69 -235.713)" fill="#fff" fill-rule="evenodd"/><path d="M240.042,86.759l1.267-.262q.422,1.607,2.668,1.607a2.53,2.53,0,0,0,1.4-.37,1.174,1.174,0,0,0,.575-1.044q0-1-1.462-1.271l-1.8-.342a3.277,3.277,0,0,1-1.679-.794,2.052,2.052,0,0,1-.624-1.562,2.258,2.258,0,0,1,.852-1.794,3.431,3.431,0,0,1,2.294-.722q2.774,0,3.424,2.169l-1.215.261a2.077,2.077,0,0,0-2.149-1.328,2.424,2.424,0,0,0-1.328.332,1.044,1.044,0,0,0-.519.928q0,.94,1.325,1.184l1.66.305q2.607.473,2.607,2.528a2.255,2.255,0,0,1-.971,1.9,4.22,4.22,0,0,1-2.583.724q-3.03,0-3.748-2.447Z" transform="translate(-168.53 -235.713)" fill="#fff" fill-rule="evenodd"/><path d="M240.042,86.759l1.267-.262q.422,1.607,2.668,1.607a2.53,2.53,0,0,0,1.4-.37,1.174,1.174,0,0,0,.575-1.044q0-1-1.462-1.271l-1.8-.342a3.277,3.277,0,0,1-1.679-.794,2.052,2.052,0,0,1-.624-1.562,2.258,2.258,0,0,1,.852-1.794,3.431,3.431,0,0,1,2.294-.722q2.774,0,3.424,2.169l-1.215.261a2.077,2.077,0,0,0-2.149-1.328,2.424,2.424,0,0,0-1.328.332,1.044,1.044,0,0,0-.519.928q0,.94,1.325,1.184l1.66.305q2.607.473,2.607,2.528a2.255,2.255,0,0,1-.971,1.9,4.22,4.22,0,0,1-2.583.724q-3.03,0-3.748-2.447Z" transform="translate(-168.53 -235.713)" fill="#fff" fill-rule="evenodd"/><path d="M178.08,40.614V38.566a.506.506,0,0,1,.519-.519h9.181a.512.512,0,0,1,.53.517V40.32a2.867,2.867,0,0,1-.691,1.289l-4.755,6.79a10.18,10.18,0,0,1,5.236,1.124.936.936,0,0,1,.487.8v2.185c0,.3-.329.65-.676.469a10.573,10.573,0,0,0-9.7.018c-.319.17-.653-.173-.653-.475V50.443a2.47,2.47,0,0,1,.342-1.408l5.509-7.9h-4.8a.511.511,0,0,1-.53-.516" transform="translate(-136.513 -214.111)" fill="#fff" fill-rule="evenodd"/><path d="M107.789,53.131H105a.527.527,0,0,1-.5-.472l0-14.335a.527.527,0,0,1,.539-.516h2.6a.526.526,0,0,1,.508.481V40.16h.052a3.684,3.684,0,0,1,3.676-2.655c1.747,0,2.842.845,3.624,2.655a4.125,4.125,0,0,1,7.091-1.086c.886,1.206.7,2.956.7,4.495l0,9.046a.527.527,0,0,1-.539.516h-2.79a.524.524,0,0,1-.5-.515v-7.6a18.286,18.286,0,0,0-.079-2.685,1.456,1.456,0,0,0-1.642-1.237,1.852,1.852,0,0,0-1.669,1.177,8.672,8.672,0,0,0-.26,2.745v7.6a.527.527,0,0,1-.539.516h-2.79a.524.524,0,0,1-.5-.515l0-7.6c0-1.6.261-3.952-1.72-3.952-2.008,0-1.929,2.292-1.929,3.952v7.6a.527.527,0,0,1-.539.516" transform="translate(-99.077 -213.834)" fill="#fff" fill-rule="evenodd"/><path d="M206.891,37.505c4.112,0,6.337,3.559,6.337,8.084,0,4.374-2.457,7.843-6.337,7.843-4.035,0-6.233-3.56-6.233-7.994,0-4.465,2.225-7.933,6.233-7.933Zm.026,3.295c-2.044,0-2.173,2.805-2.173,4.555s-.026,5.121,2.147,5.121c2.147,0,2.25-2.648,2.25-4.488a13.351,13.351,0,0,0-.414-3.8,1.737,1.737,0,0,0-1.811-1.388Z" transform="translate(-148.349 -213.834)" fill="#fff" fill-rule="evenodd"/><path d="M235.188,53.131h-2.783a.525.525,0,0,1-.5-.515l0-14.34a.529.529,0,0,1,.537-.468h2.591a.531.531,0,0,1,.5.4V40.4h.053c.782-1.961,1.876-2.9,3.806-2.9a3.661,3.661,0,0,1,3.259,1.689c.73,1.146.73,3.077.73,4.465v9.02a.53.53,0,0,1-.535.452h-2.8a.527.527,0,0,1-.5-.452V44.9c0-1.569.182-3.861-1.747-3.861a1.827,1.827,0,0,0-1.616,1.146,6.373,6.373,0,0,0-.444,2.715v7.719a.535.535,0,0,1-.544.516" transform="translate(-164.358 -213.834)" fill="#fff" fill-rule="evenodd"/><path d="M155.622,46.139A5.482,5.482,0,0,1,155.1,49.1a2.268,2.268,0,0,1-1.934,1.269c-1.071,0-1.7-.816-1.7-2.025,0-2.379,2.134-2.811,4.154-2.811v.6Zm2.816,6.81a.579.579,0,0,1-.66.065,6.823,6.823,0,0,1-1.6-1.861,5.536,5.536,0,0,1-4.6,2.03,3.964,3.964,0,0,1-4.18-4.353,4.744,4.744,0,0,1,2.978-4.565,19.308,19.308,0,0,1,5.252-.968v-.363a3.577,3.577,0,0,0-.34-2.025,1.866,1.866,0,0,0-1.568-.726,2.127,2.127,0,0,0-2.245,1.677.59.59,0,0,1-.485.513l-2.707-.293a.492.492,0,0,1-.417-.584c.622-3.284,3.588-4.277,6.246-4.277a6.335,6.335,0,0,1,4.206,1.391c1.359,1.27,1.228,2.963,1.228,4.807V47.77a3.814,3.814,0,0,0,1.055,2.588.526.526,0,0,1-.01.742c-.571.478-1.584,1.359-2.142,1.855l-.006-.006Z" transform="translate(-121.056 -213.688)" fill="#fff" fill-rule="evenodd"/><path d="M81.181,46.139a5.479,5.479,0,0,1-.522,2.963,2.268,2.268,0,0,1-1.934,1.269c-1.071,0-1.7-.816-1.7-2.025,0-2.379,2.134-2.811,4.154-2.811v.6ZM84,52.949a.579.579,0,0,1-.66.065,6.814,6.814,0,0,1-1.6-1.861,5.535,5.535,0,0,1-4.6,2.03,3.964,3.964,0,0,1-4.181-4.353,4.744,4.744,0,0,1,2.979-4.565,19.308,19.308,0,0,1,5.252-.968v-.363a3.579,3.579,0,0,0-.339-2.025,1.867,1.867,0,0,0-1.568-.726,2.127,2.127,0,0,0-2.245,1.677.589.589,0,0,1-.485.513l-2.707-.293a.492.492,0,0,1-.417-.584c.622-3.284,3.588-4.277,6.246-4.277a6.336,6.336,0,0,1,4.207,1.391c1.359,1.27,1.228,2.963,1.228,4.807V47.77a3.816,3.816,0,0,0,1.054,2.588.526.526,0,0,1-.009.742c-.571.478-1.584,1.359-2.142,1.855L84,52.949Z" transform="translate(-82.912 -213.688)" fill="#fff" fill-rule="evenodd"/></g></g></g></svg>